<?xml version="1.0" encoding="UTF-8"?>
<svg id="Layer_2" data-name="Layer 2" xmlns="http://www.w3.org/2000/svg" viewBox="0 0 13.83 13.83">
  <defs>
    <style>
      .cls-1 {
        fill: #fff;
        stroke: #000;
        stroke-miterlimit: 10;
      }
    </style>
  </defs>
  <g id="Layer_1-2" data-name="Layer 1">
    <path d="m13.83,3.33v9.75c0,.2-.08.39-.21.52s-.33.23-.54.23H3.33c-.41,0-.75-.34-.75-.75s.34-.75.75-.75h7.94L.55,1.61c-.29-.29-.29-.77,0-1.06.29-.29.77-.29,1.06,0l10.72,10.72V3.33c0-.41.34-.75.75-.75s.75.34.75.75Z"/>
    <rect class="cls-1" x="12.83" y="3.07" width=".5" height=".74"/>
    <rect class="cls-1" x="12.83" y="12.59" width=".5" height=".74"/>
    <rect class="cls-1" x="3.19" y="12.71" width=".5" height=".74" transform="translate(-9.63 16.52) rotate(-90)"/>
    <rect class="cls-1" x=".89" y=".78" width=".5" height=".74" transform="translate(-.47 1.14) rotate(-45)"/>
  </g>
</svg>