<?xml version="1.0" encoding="utf-8"?>
<!-- Generator: Adobe Illustrator 27.2.0, SVG Export Plug-In . SVG Version: 6.00 Build 0)  -->
<svg version="1.1" id="Layer_1" xmlns="http://www.w3.org/2000/svg" xmlns:xlink="http://www.w3.org/1999/xlink" x="0px" y="0px"
	 viewBox="0 0 24 24" style="enable-background:new 0 0 24 24;" xml:space="preserve">
<style type="text/css">
	.st0{fill:#4F4F4F;}
</style>
<path class="st0" d="M21.6,19.9c-1.4-2.5-3.6-4.2-6.2-5.1c3.2-1.9,4.3-6,2.3-9.3c-1.9-3.2-6-4.3-9.3-2.3s-4.3,6-2.3,9.3
	c0.6,1,1.4,1.8,2.3,2.3c-2.6,0.8-4.8,2.6-6.2,5.1c-0.2,0.4-0.1,0.8,0.2,1c0.4,0.2,0.8,0.1,1-0.2c0,0,0,0,0,0
	c1.8-3.1,4.9-4.9,8.4-4.9s6.6,1.8,8.4,4.9c0.2,0.4,0.7,0.5,1,0.3C21.7,20.7,21.9,20.3,21.6,19.9C21.7,19.9,21.7,19.9,21.6,19.9z
	 M6.8,9c0-2.9,2.4-5.2,5.2-5.2s5.2,2.4,5.2,5.2s-2.4,5.2-5.2,5.2C9.1,14.2,6.8,11.9,6.8,9z"/>
</svg>
